<svg width="81" height="18" viewBox="0 0 81 18" fill="none" xmlns="http://www.w3.org/2000/svg">
<path d="M0.584 17.5613V0.761339H3.752V7.43334H4.184L9.632 0.761339H13.688L6.68 9.04134L13.928 17.5613H9.752L4.184 10.7453H3.752V17.5613H0.584ZM15.7034 17.5613V5.65734H18.6794V7.00134H19.1114C19.2874 6.52134 19.5754 6.16934 19.9754 5.94534C20.3914 5.72134 20.8714 5.60934 21.4154 5.60934H22.8554V8.29734H21.3674C20.5994 8.29734 19.9674 8.50534 19.4714 8.92134C18.9754 9.32134 18.7274 9.94534 18.7274 10.7933V17.5613H15.7034ZM30.2212 17.8973C29.0372 17.8973 27.9892 17.6493 27.0772 17.1533C26.1812 16.6413 25.4772 15.9293 24.9652 15.0173C24.4692 14.0893 24.2212 13.0013 24.2212 11.7533V11.4653C24.2212 10.2173 24.4692 9.13734 24.9652 8.22534C25.4612 7.29734 26.1572 6.58534 27.0532 6.08934C27.9492 5.57734 28.9892 5.32134 30.1732 5.32134C31.3412 5.32134 32.3572 5.58534 33.2212 6.11334C34.0852 6.62534 34.7572 7.34534 35.2372 8.27334C35.7172 9.18534 35.9572 10.2493 35.9572 11.4653V12.4973H27.2932C27.3252 13.3133 27.6292 13.9773 28.2052 14.4893C28.7812 15.0013 29.4852 15.2573 30.3172 15.2573C31.1652 15.2573 31.7892 15.0733 32.1892 14.7053C32.5892 14.3373 32.8932 13.9293 33.1012 13.4813L35.5732 14.7773C35.3492 15.1933 35.0212 15.6493 34.5892 16.1453C34.1732 16.6253 33.6132 17.0413 32.9092 17.3933C32.2052 17.7293 31.3092 17.8973 30.2212 17.8973ZM27.3172 10.2413H32.8852C32.8212 9.55334 32.5412 9.00134 32.0452 8.58534C31.5652 8.16934 30.9332 7.96134 30.1492 7.96134C29.3332 7.96134 28.6852 8.16934 28.2052 8.58534C27.7252 9.00134 27.4292 9.55334 27.3172 10.2413ZM42.3448 17.8973C41.4968 17.8973 40.7368 17.7533 40.0648 17.4653C39.3928 17.1613 38.8568 16.7293 38.4568 16.1693C38.0728 15.5933 37.8808 14.8973 37.8808 14.0813C37.8808 13.2653 38.0728 12.5853 38.4568 12.0413C38.8568 11.4813 39.4008 11.0653 40.0888 10.7933C40.7928 10.5053 41.5928 10.3613 42.4888 10.3613H45.7528V9.68934C45.7528 9.12934 45.5768 8.67334 45.2248 8.32134C44.8728 7.95334 44.3128 7.76934 43.5448 7.76934C42.7928 7.76934 42.2328 7.94534 41.8648 8.29734C41.4968 8.63334 41.2568 9.07334 41.1448 9.61734L38.3608 8.68134C38.5528 8.07334 38.8568 7.52134 39.2728 7.02534C39.7048 6.51334 40.2728 6.10534 40.9768 5.80134C41.6968 5.48134 42.5688 5.32134 43.5928 5.32134C45.1608 5.32134 46.4008 5.71334 47.3128 6.49734C48.2248 7.28134 48.6808 8.41734 48.6808 9.90534V14.3453C48.6808 14.8253 48.9048 15.0653 49.3528 15.0653H50.3128V17.5613H48.2968C47.7048 17.5613 47.2168 17.4173 46.8328 17.1293C46.4488 16.8413 46.2568 16.4573 46.2568 15.9773V15.9533H45.8008C45.7368 16.1453 45.5928 16.4013 45.3688 16.7213C45.1448 17.0253 44.7928 17.2973 44.3128 17.5373C43.8328 17.7773 43.1768 17.8973 42.3448 17.8973ZM42.8728 15.4493C43.7208 15.4493 44.4088 15.2173 44.9368 14.7533C45.4808 14.2733 45.7528 13.6413 45.7528 12.8573V12.6173H42.7048C42.1448 12.6173 41.7048 12.7373 41.3848 12.9773C41.0648 13.2173 40.9048 13.5533 40.9048 13.9853C40.9048 14.4173 41.0728 14.7693 41.4088 15.0413C41.7448 15.3133 42.2328 15.4493 42.8728 15.4493ZM56.2166 17.5613C55.4326 17.5613 54.7926 17.3213 54.2966 16.8413C53.8166 16.3453 53.5766 15.6893 53.5766 14.8733V8.15334H50.6006V5.65734H53.5766V1.96134H56.6006V5.65734H59.8646V8.15334H56.6006V14.3453C56.6006 14.8253 56.8246 15.0653 57.2726 15.0653H59.5766V17.5613H56.2166ZM62.6019 17.5613V5.65734H65.6259V17.5613H62.6019ZM64.1139 4.26534C63.5699 4.26534 63.1059 4.08934 62.7219 3.73734C62.3539 3.38534 62.1699 2.92134 62.1699 2.34534C62.1699 1.76934 62.3539 1.30534 62.7219 0.95334C63.1059 0.601339 63.5699 0.425339 64.1139 0.425339C64.6739 0.425339 65.1379 0.601339 65.5059 0.95334C65.8739 1.30534 66.0579 1.76934 66.0579 2.34534C66.0579 2.92134 65.8739 3.38534 65.5059 3.73734C65.1379 4.08934 64.6739 4.26534 64.1139 4.26534ZM71.4729 17.5613L67.6809 5.65734H70.8969L73.6569 15.3533H74.0889L76.8489 5.65734H80.0649L76.2729 17.5613H71.4729Z" fill="url(#paint0_linear_1_165)"/>
<defs>
<linearGradient id="paint0_linear_1_165" x1="-4.41667" y1="-0.659989" x2="82.6386" y2="19.1105" gradientUnits="userSpaceOnUse">
<stop stop-color="#496F74"/>
<stop offset="0.370774" stop-color="#6E9195"/>
<stop offset="0.832516" stop-color="#2D4F61"/>
</linearGradient>
</defs>
</svg>
